<svg width="26" height="26" viewBox="0 0 26 26" fill="none" xmlns="http://www.w3.org/2000/svg">
<path d="M14.9847 17.9487C15.2085 18.0514 15.4606 18.0749 15.6994 18.0152C15.9383 17.9556 16.1497 17.8163 16.2988 17.6204L16.6834 17.1167C16.8852 16.8476 17.1469 16.6292 17.4478 16.4788C17.7486 16.3283 18.0804 16.25 18.4167 16.25H21.6667C22.2414 16.25 22.7925 16.4783 23.1988 16.8846C23.6051 17.291 23.8334 17.8421 23.8334 18.4167V21.6667C23.8334 22.2413 23.6051 22.7924 23.1988 23.1988C22.7925 23.6051 22.2414 23.8334 21.6667 23.8334C16.495 23.8334 11.5351 21.7789 7.87817 18.1219C4.22121 14.465 2.16675 9.50508 2.16675 4.33335C2.16675 3.75872 2.39502 3.20762 2.80135 2.80129C3.20768 2.39496 3.75878 2.16669 4.33341 2.16669H7.58341C8.15805 2.16669 8.70915 2.39496 9.11548 2.80129C9.52181 3.20762 9.75008 3.75872 9.75008 4.33335V7.58335C9.75008 7.91972 9.67177 8.25146 9.52134 8.55232C9.37091 8.85317 9.15251 9.11487 8.88341 9.31669L8.37641 9.69694C8.17753 9.8488 8.03735 10.0648 7.97969 10.3083C7.92202 10.5518 7.95043 10.8078 8.06008 11.0327C9.54065 14.0399 11.9757 16.4719 14.9847 17.9487Z" stroke="black" stroke-width="2" stroke-linecap="round" stroke-linejoin="round"/>
</svg>
