<svg width="26" height="26" viewBox="0 0 26 26" fill="none" xmlns="http://www.w3.org/2000/svg">
<g clip-path="url(#clip0_3346_20)">
<path d="M14.9846 17.9487C15.2084 18.0514 15.4604 18.0749 15.6993 18.0152C15.9382 17.9556 16.1496 17.8163 16.2987 17.6204L16.6833 17.1167C16.8851 16.8476 17.1468 16.6292 17.4477 16.4788C17.7485 16.3283 18.0803 16.25 18.4166 16.25H21.6666C22.2413 16.25 22.7924 16.4783 23.1987 16.8846C23.605 17.291 23.8333 17.8421 23.8333 18.4167V21.6667C23.8333 22.2413 23.605 22.7924 23.1987 23.1988C22.7924 23.6051 22.2413 23.8334 21.6666 23.8334C16.4949 23.8334 11.535 21.7789 7.87804 18.1219C4.22108 14.465 2.16663 9.50508 2.16663 4.33335C2.16663 3.75872 2.3949 3.20762 2.80123 2.80129C3.20756 2.39496 3.75866 2.16669 4.33329 2.16669H7.58329C8.15793 2.16669 8.70903 2.39496 9.11536 2.80129C9.52169 3.20762 9.74996 3.75872 9.74996 4.33335V7.58335C9.74996 7.91972 9.67165 8.25146 9.52122 8.55232C9.37079 8.85317 9.15238 9.11487 8.88329 9.31669L8.37629 9.69694C8.17741 9.8488 8.03723 10.0648 7.97957 10.3083C7.9219 10.5518 7.95031 10.8078 8.05996 11.0327C9.54053 14.0399 11.9756 16.4719 14.9846 17.9487Z" stroke="white" stroke-width="3" stroke-linecap="round" stroke-linejoin="round"/>
</g>
<defs>
<clipPath id="clip0_3346_20">
<rect width="26" height="26" fill="white"/>
</clipPath>
</defs>
</svg>
